<svg width="22" height="22" viewBox="0 0 22 22" fill="none" xmlns="http://www.w3.org/2000/svg">
<g clip-path="url(#clip0_1_22)">
<path d="M10.8348 7.67414L13.9191 10.6803L13.9338 10.5228C13.9338 8.94339 12.6168 7.65983 10.9963 7.65983L10.8348 7.67414Z" fill="black"/>
<path d="M10.9964 5.7512C13.6988 5.7512 15.8921 7.88892 15.8921 10.5229C15.8921 11.1384 15.7648 11.7253 15.5445 12.2645L18.4085 15.0559C19.887 13.8535 21.0522 12.2979 21.7719 10.5229C20.0731 6.33338 15.897 3.3654 10.9964 3.3654C9.62561 3.3654 8.31358 3.60397 7.09454 4.03341L9.2095 6.08998C9.76266 5.88004 10.3648 5.7512 10.9964 5.7512Z" fill="black"/>
<path d="M1.2049 3.15064L3.43735 5.32651L3.88288 5.76074C2.26729 6.99183 0.989502 8.62852 0.225769 10.5228C1.91971 14.7123 6.10064 17.6803 10.9964 17.6803C12.5141 17.6803 13.9632 17.394 15.29 16.8739L15.7061 17.2795L18.5603 20.0661L19.8087 18.8541L2.45331 1.93387L1.2049 3.15064ZM6.6196 8.42332L8.13238 9.89776C8.08832 10.103 8.05895 10.3081 8.05895 10.5228C8.05895 12.1023 9.37588 13.3858 10.9964 13.3858C11.2167 13.3858 11.4272 13.3572 11.6328 13.3142L13.1456 14.7887C12.4945 15.1036 11.7699 15.2945 10.9964 15.2945C8.29394 15.2945 6.10064 13.1568 6.10064 10.5228C6.10064 9.76892 6.29649 9.06271 6.6196 8.42332Z" fill="black"/>
</g>
<defs>
<clipPath id="clip0_1_22">
<rect width="21.5461" height="21" fill="white" transform="translate(0.225769 0.5)"/>
</clipPath>
</defs>
</svg>